<svg width="110" height="36" viewBox="0 0 110 36" fill="none" xmlns="http://www.w3.org/2000/svg">
<path d="M13.6314 17.8037C13.6314 18.9393 12.7117 19.8573 11.574 19.8573C10.4363 19.8573 9.5166 18.9393 9.5166 17.8037C9.5166 16.668 10.4363 15.75 11.574 15.75C12.7117 15.75 13.6314 16.668 13.6314 17.8037Z" fill="white"/>
<path d="M13.6261 23.2111C13.6261 24.3467 12.7063 25.2647 11.5686 25.2647C10.431 25.2647 9.51123 24.3467 9.51123 23.2111C9.51123 22.0755 10.431 21.1574 11.5686 21.1574C12.7063 21.1521 13.6261 22.0755 13.6261 23.2111Z" fill="white"/>
<path d="M18.2887 20.5525C18.2887 21.6881 17.3689 22.6062 16.2312 22.6062C15.0936 22.6062 14.1738 21.6881 14.1738 20.5525C14.1738 19.4169 15.0936 18.4988 16.2312 18.4988C17.3636 18.4988 18.2887 19.4169 18.2887 20.5525Z" fill="white"/>
<path d="M22.818 17.9788C22.818 19.1144 21.8982 20.0324 20.7605 20.0324C19.6228 20.0324 18.7031 19.1144 18.7031 17.9788C18.7031 16.8432 19.6228 15.9251 20.7605 15.9251C21.8929 15.9251 22.818 16.8485 22.818 17.9788Z" fill="white"/>
<path d="M27.4752 15.3201C27.4752 16.4557 26.5555 17.3738 25.4178 17.3738C24.2801 17.3738 23.3604 16.4557 23.3604 15.3201C23.3604 14.1845 24.2801 13.2665 25.4178 13.2665C26.5555 13.2665 27.4752 14.1898 27.4752 15.3201Z" fill="white"/>
<path d="M25.1791 14.895L11.3242 22.7801L11.8087 23.6283L25.6636 15.7432L25.1791 14.895Z" fill="white"/>
<path d="M13.6261 28.6132C13.6261 29.7488 12.7063 30.6669 11.5686 30.6669C10.431 30.6669 9.51123 29.7488 9.51123 28.6132C9.51123 27.4776 10.431 26.5596 11.5686 26.5596C12.7063 26.5596 13.6261 27.4776 13.6261 28.6132Z" fill="white"/>
<path d="M18.2887 25.9546C18.2887 27.0902 17.3689 28.0082 16.2312 28.0082C15.0936 28.0082 14.1738 27.0902 14.1738 25.9546C14.1738 24.819 15.0936 23.9009 16.2312 23.9009C17.3636 23.9009 18.2887 24.819 18.2887 25.9546Z" fill="white"/>
<path d="M22.818 23.3862C22.818 24.5218 21.8982 25.4398 20.7605 25.4398C19.6228 25.4398 18.7031 24.5218 18.7031 23.3862C18.7031 22.2506 19.6228 21.3325 20.7605 21.3325C21.8929 21.3325 22.818 22.2506 22.818 23.3862Z" fill="white"/>
<path d="M27.4752 20.7276C27.4752 21.8632 26.5555 22.7813 25.4178 22.7813C24.2801 22.7813 23.3604 21.8632 23.3604 20.7276C23.3604 19.592 24.2801 18.674 25.4178 18.674C26.5555 18.674 27.4752 19.592 27.4752 20.7276Z" fill="white"/>
<path d="M25.181 20.3006L11.3262 28.1857L11.8107 29.0339L25.6655 21.1488L25.181 20.3006Z" fill="white"/>
<path d="M8.14506 6.52711C7.16154 7.09492 5.90158 6.7606 5.33273 5.77888C4.76388 4.79716 5.09881 3.5395 6.08233 2.97169C7.06585 2.40388 8.32582 2.7382 8.89466 3.71992C9.46351 4.70164 9.12858 5.95931 8.14506 6.52711Z" fill="white"/>
<path d="M12.7862 9.21754C11.8027 9.78535 10.5427 9.45103 9.97384 8.46931C9.405 7.48759 9.73992 6.22992 10.7234 5.66212C11.707 5.09431 12.9669 5.42863 13.5358 6.41035C14.1046 7.39207 13.7697 8.64974 12.7862 9.21754Z" fill="white"/>
<path d="M17.2891 11.8391C16.3056 12.4069 15.0456 12.0726 14.4768 11.0908C13.9079 10.1091 14.2429 8.85145 15.2264 8.28364C16.2099 7.71583 17.4699 8.05015 18.0387 9.03187C18.6076 10.0136 18.2726 11.2713 17.2891 11.8391Z" fill="white"/>
<path d="M21.9302 14.5295C20.9467 15.0973 19.6867 14.763 19.1179 13.7813C18.549 12.7995 18.884 11.5419 19.8675 10.9741C20.851 10.4063 22.111 10.7406 22.6798 11.7223C23.2487 12.704 22.9137 13.9617 21.9302 14.5295Z" fill="white"/>
<path d="M7.3601 4.3304L6.86816 5.17432L20.6529 13.1804L21.1448 12.3365L7.3601 4.3304Z" fill="white"/>
<path d="M3.40288 9.13795C2.41936 9.70576 1.15939 9.37145 0.590542 8.38972C0.0216955 7.408 0.356624 6.15034 1.34014 5.58253C2.32366 5.01472 3.58363 5.34904 4.15248 6.33076C4.71601 7.30718 4.38639 8.56484 3.40288 9.13795Z" fill="white"/>
<path d="M8.04399 11.8231C7.06047 12.3909 5.8005 12.0566 5.23166 11.0749C4.66281 10.0932 4.99774 8.83552 5.98126 8.26771C6.96478 7.6999 8.22474 8.03422 8.79359 9.01594C9.36243 9.99766 9.02751 11.2553 8.04399 11.8231Z" fill="white"/>
<path d="M12.5469 14.4446C11.5634 15.0124 10.3034 14.6781 9.73458 13.6964C9.16574 12.7146 9.50067 11.457 10.4842 10.8892C11.4677 10.3214 12.7277 10.6557 13.2965 11.6374C13.86 12.6191 13.5251 13.8768 12.5469 14.4446Z" fill="white"/>
<path d="M17.188 17.135C16.2045 17.7028 14.9445 17.3685 14.3757 16.3868C13.8069 15.4051 14.1418 14.1474 15.1253 13.5796C16.1088 13.0118 17.3688 13.3461 17.9376 14.3278C18.5065 15.3096 18.1716 16.5672 17.188 17.135Z" fill="white"/>
<path d="M2.61611 6.93595L2.12427 7.77997L15.9106 15.7845L16.4024 14.9404L2.61611 6.93595Z" fill="white"/>
<path d="M3.10515 26.6179C4.08335 27.1963 4.40764 28.4593 3.82817 29.4304C3.24869 30.4068 1.98872 30.7305 1.01052 30.1521C0.0323121 29.5737 -0.291983 28.316 0.287496 27.3396C0.861658 26.3632 2.12694 26.0395 3.10515 26.6179Z" fill="white"/>
<path d="M3.19011 21.2635C4.16831 21.842 4.49261 23.1049 3.91313 24.076C3.33365 25.0524 2.07368 25.3762 1.09548 24.7977C0.117273 24.2193 -0.207023 22.9563 0.372457 21.9799C0.946619 21.0035 2.2119 20.6851 3.19011 21.2635Z" fill="white"/>
<path d="M3.28581 16.0631C4.26401 16.6415 4.58831 17.9045 4.00883 18.8756C3.42935 19.852 2.16938 20.1757 1.19118 19.5973C0.212976 19.0188 -0.111319 17.7612 0.46816 16.7848C1.04232 15.803 2.30761 15.4847 3.28581 16.0631Z" fill="white"/>
<path d="M3.37102 10.7034C4.34922 11.2818 4.67351 12.5395 4.09404 13.5159C3.51456 14.4923 2.25459 14.816 1.27638 14.2376C0.298181 13.6592 -0.0261144 12.4015 0.553365 11.4251C1.12753 10.4487 2.39281 10.125 3.37102 10.7034Z" fill="white"/>
<path d="M1.83448 12.4639L1.56494 28.3821L2.54304 28.3986L2.81258 12.4804L1.83448 12.4639Z" fill="white"/>
<path d="M7.69841 29.4782C8.67661 30.0566 9.00091 31.3195 8.42143 32.2907C7.84195 33.2671 6.58198 33.5908 5.60378 33.0124C4.62557 32.4339 4.30128 31.171 4.88076 30.1945C5.45492 29.2234 6.7202 28.8997 7.69841 29.4782Z" fill="white"/>
<path d="M7.78337 24.1238C8.76157 24.7022 9.08587 25.9599 8.50639 26.9363C7.92691 27.9127 6.66694 28.2364 5.68874 27.658C4.71053 27.0796 4.38624 25.8219 4.96572 24.8455C5.5452 23.8691 6.80517 23.5454 7.78337 24.1238Z" fill="white"/>
<path d="M7.87932 18.9233C8.85752 19.5017 9.18181 20.7647 8.60234 21.7358C8.02286 22.7122 6.76289 23.0359 5.78469 22.4575C4.80648 21.8791 4.48219 20.6161 5.06167 19.6397C5.63583 18.6633 6.90111 18.3449 7.87932 18.9233Z" fill="white"/>
<path d="M7.96428 13.5636C8.94248 14.1421 9.26677 15.405 8.6873 16.3761C8.10782 17.3526 6.84785 17.6763 5.86965 17.0978C4.89144 16.5194 4.56715 15.2618 5.14663 14.2853C5.72611 13.3089 6.98607 12.9852 7.96428 13.5636Z" fill="white"/>
<path d="M6.4281 15.3205L6.16016 31.2387L7.13826 31.2551L7.4062 15.3369L6.4281 15.3205Z" fill="white"/>
<path d="M42.4193 3.09375C43.7271 3.09375 44.7585 3.4546 45.4975 4.1816C46.2418 4.90861 46.6086 5.91156 46.6086 7.19576C46.6086 8.47995 46.2418 9.46698 45.5028 10.1621C44.7638 10.8573 43.7378 11.2022 42.4193 11.2022H39.9207V3.09375H42.4193ZM40.7447 10.5708H42.4193C43.5092 10.5708 44.3385 10.2736 44.9074 9.68455C45.4762 9.09552 45.7633 8.26238 45.7633 7.20106C45.7633 6.13443 45.4762 5.3066 44.9074 4.71757C44.3385 4.12854 43.5092 3.83137 42.4193 3.83137H40.7447V10.5708Z" fill="white"/>
<path d="M49.2828 3.09375H48.4587V11.2022H49.2828V3.09375Z" fill="white"/>
<path d="M52.297 10.1091C51.4996 9.33432 51.1008 8.3473 51.1008 7.14801C51.1008 5.94871 51.4996 4.96168 52.297 4.18161C53.0944 3.40154 54.0727 3.01416 55.2316 3.01416C56.0663 3.01416 56.8052 3.19989 57.4485 3.57666C58.0971 3.95343 58.5862 4.50001 58.9158 5.22171H57.9163C57.6665 4.74411 57.305 4.37796 56.8318 4.11793C56.3587 3.85791 55.827 3.73055 55.2316 3.73055C54.28 3.73055 53.4985 4.04364 52.8765 4.66982C52.2545 5.296 51.9461 6.12383 51.9461 7.14801C51.9461 8.17218 52.2545 9.00001 52.8765 9.62619C53.4985 10.2524 54.2747 10.5655 55.2103 10.5655C56.146 10.5655 56.9062 10.2895 57.4857 9.74293C58.0652 9.19635 58.4001 8.44812 58.4852 7.49824H54.8382V6.84553H59.3464V7.50355C59.2348 8.63385 58.7989 9.54128 58.028 10.2364C57.2571 10.9316 56.3108 11.2765 55.1784 11.2765C54.062 11.2765 53.0944 10.8839 52.297 10.1091Z" fill="white"/>
<path d="M61.994 3.09375H61.1699V11.2022H61.994V3.09375Z" fill="white"/>
<path d="M63.9238 3.76769V3.09375H68.9956V3.76769H66.8691V11.2022H66.0557V3.76769H63.9238Z" fill="white"/>
<path d="M75.4815 11.2022L74.801 9.31309H71.0105L70.314 11.2022H69.49L72.4778 3.09375H73.3231L76.3002 11.2022H75.4815ZM71.2444 8.65507H74.5511L72.9031 4.11792L71.2444 8.65507Z" fill="white"/>
<path d="M78.0493 3.09375H78.8733V10.5708H81.8292V11.2022H78.0493V3.09375Z" fill="white"/>
<path d="M40.7447 14.3438H39.9207V22.4522H40.7447V14.3438Z" fill="white"/>
<path d="M48.5119 14.3438H49.336V22.4522H48.5119L43.9559 15.6598V22.4522H43.1318V14.3438H43.9559L48.5119 21.1362V14.3438Z" fill="white"/>
<path d="M57.1084 14.3438H57.9324V22.4522H57.1084L52.5523 15.6598V22.4522H51.7283V14.3438H52.5523L57.1084 21.1362V14.3438Z" fill="white"/>
<path d="M54.8384 25.615H55.6624V33.7235H54.8384L50.2823 26.931V33.7235H49.4583V25.615H50.2823L54.8384 32.4074V25.615Z" fill="white"/>
<path d="M61.0743 21.3644C60.2769 20.5843 59.8782 19.5973 59.8782 18.398C59.8782 17.1987 60.2769 16.2117 61.0743 15.4316C61.8718 14.6515 62.85 14.2642 64.0196 14.2642C65.1839 14.2642 66.1621 14.6515 66.9542 15.4316C67.7463 16.2117 68.1451 17.1987 68.1451 18.398C68.1451 19.5973 67.7463 20.5843 66.9542 21.3644C66.1621 22.1445 65.1839 22.5318 64.0196 22.5318C62.8553 22.5372 61.8718 22.1445 61.0743 21.3644ZM66.3588 20.8868C66.9808 20.2553 67.2944 19.4275 67.2944 18.4033C67.2944 17.3791 66.9861 16.5513 66.3641 15.9251C65.7421 15.2989 64.9606 14.9859 64.009 14.9859C63.0573 14.9859 62.2705 15.2989 61.6485 15.9251C61.0265 16.5513 60.7128 17.3791 60.7128 18.4033C60.7128 19.4275 61.0265 20.2606 61.6485 20.8868C62.2705 21.5183 63.0573 21.8314 64.0036 21.8314C64.9499 21.8314 65.7368 21.5183 66.3588 20.8868Z" fill="white"/>
<path d="M41.1168 32.6303C40.3194 31.8503 39.9207 30.8632 39.9207 29.6639C39.9207 28.4646 40.3194 27.4776 41.1168 26.6975C41.9143 25.9175 42.8925 25.5301 44.0621 25.5301C45.2317 25.5301 46.2045 25.9175 46.9967 26.6975C47.7888 27.4776 48.1875 28.4646 48.1875 29.6639C48.1875 30.8632 47.7888 31.8503 46.9967 32.6303C46.2045 33.4104 45.2263 33.7978 44.0621 33.7978C42.8978 33.7978 41.9143 33.4104 41.1168 32.6303ZM46.4013 32.1474C47.0233 31.5159 47.3369 30.6881 47.3369 29.6639C47.3369 28.6398 47.0286 27.8119 46.4066 27.1858C45.7846 26.5596 45.0031 26.2465 44.0514 26.2465C43.0998 26.2465 42.313 26.5596 41.691 27.1858C41.069 27.8119 40.7553 28.6398 40.7553 29.6639C40.7553 30.6881 41.069 31.5212 41.691 32.1474C42.313 32.7789 43.0998 33.092 44.0461 33.092C44.9924 33.092 45.7792 32.7789 46.4013 32.1474Z" fill="white"/>
<path d="M72.1854 22.4522L68.9956 14.3438H69.8675L72.5735 21.5236L75.3061 14.3438H76.178L72.9882 22.4522H72.1854Z" fill="white"/>
<path d="M82.6585 22.4522L81.978 20.5631H78.1875L77.491 22.4522H76.667L79.6548 14.3438H80.5001L83.4772 22.4522H82.6585ZM78.4214 19.9051H81.7281L80.0801 15.3679L78.4214 19.9051Z" fill="white"/>
<path d="M83.9875 15.0177V14.3491H89.0593V15.0177H86.9275V22.4522H86.1141V15.0177H83.9875Z" fill="white"/>
<path d="M91.6165 14.3438H90.7925V22.4522H91.6165V14.3438Z" fill="white"/>
<path d="M94.7745 21.3644C93.9771 20.5843 93.5784 19.5973 93.5784 18.398C93.5784 17.1987 93.9771 16.2117 94.7745 15.4316C95.572 14.6515 96.5502 14.2642 97.7198 14.2642C98.8841 14.2642 99.8623 14.6515 100.654 15.4316C101.447 16.2117 101.845 17.1987 101.845 18.398C101.845 19.5973 101.447 20.5843 100.654 21.3644C99.8623 22.1445 98.8841 22.5318 97.7198 22.5318C96.5555 22.5372 95.572 22.1445 94.7745 21.3644ZM100.064 20.8868C100.686 20.2553 101 19.4275 101 18.4033C101 17.3791 100.692 16.5513 100.07 15.9251C99.4476 15.2989 98.6661 14.9859 97.7145 14.9859C96.7628 14.9859 95.976 15.2989 95.354 15.9251C94.732 16.5513 94.4183 17.3791 94.4183 18.4033C94.4183 19.4275 94.732 20.2606 95.354 20.8868C95.976 21.5183 96.7628 21.8314 97.7092 21.8314C98.6555 21.8314 99.437 21.5183 100.064 20.8868Z" fill="white"/>
<path d="M109.166 14.3438H109.995V22.4522H109.166L104.615 15.6598V22.4522H103.791V14.3438H104.615L109.166 21.1362V14.3438Z" fill="white"/>
<path d="M61.4943 25.5035V26.273H58.246V29.1226H61.1434V29.9558H58.246V32.885H61.4943V33.6439H57.3635V25.5035H61.4943Z" fill="white"/>
<path d="M33.1424 0H32.6533V36H33.1424V0Z" fill="white"/>
</svg>
